<svg width="72" height="72" viewBox="0 0 72 72" fill="none" xmlns="http://www.w3.org/2000/svg">
<rect width="72" height="72" rx="36" fill="#D4EAF6"/>
<path d="M47.6667 48.1667H48.1667V47.6667V24.3333V23.8333H47.6667H24.3333H23.8333V24.3333V47.6667V48.1667H24.3333H47.6667ZM24.3333 21.5H47.6667C48.4181 21.5 49.1388 21.7985 49.6701 22.3299C50.2015 22.8612 50.5 23.5819 50.5 24.3333V47.6667C50.5 48.4181 50.2015 49.1388 49.6701 49.6701C49.1388 50.2015 48.4181 50.5 47.6667 50.5H24.3333C23.5819 50.5 22.8612 50.2015 22.3299 49.6701C21.7985 49.1388 21.5 48.4181 21.5 47.6667V24.3333C21.5 23.5819 21.7985 22.8612 22.3299 22.3299C22.8612 21.7985 23.5819 21.5 24.3333 21.5ZM30.5 43.8333H28.1667V36.5H30.5V43.8333ZM37.1667 43.8333H34.8333V28.1667H37.1667V43.8333ZM43.8333 43.8333H41.5V33.1667H43.8333V43.8333Z" fill="#31A0FE" stroke="#31A0FE"/>
</svg>
