<svg width="72" height="72" viewBox="0 0 72 72" fill="none" xmlns="http://www.w3.org/2000/svg">
<rect width="72" height="72" rx="36" fill="#F3DCD5"/>
<path d="M49.599 26.4241L51.0774 25.5001H49.334H22.6673H20.9239L22.4023 26.4241L35.7357 34.7574L36.0007 34.923L36.2657 34.7574L49.599 26.4241ZM49.334 46.5001H49.834V46.0001V29.3334V28.4313L49.069 28.9094L36.0007 37.0771L22.9323 28.9094L22.1673 28.4313V29.3334V46.0001V46.5001H22.6673H49.334ZM49.334 23.1667C50.8912 23.1667 52.1673 24.4429 52.1673 26.0001V46.0001C52.1673 47.5573 50.8912 48.8334 49.334 48.8334H22.6673C21.1101 48.8334 19.834 47.5573 19.834 46.0001V26.0001C19.834 24.4429 21.1101 23.1667 22.6673 23.1667H49.334Z" fill="#EC5C2E" stroke="#EC5C2E"/>
</svg>
